<?xml version="1.0" encoding="utf-8"?>
<!-- Generator: Adobe Illustrator 16.0.0, SVG Export Plug-In . SVG Version: 6.00 Build 0)  -->
<!DOCTYPE svg PUBLIC "-//W3C//DTD SVG 1.1//EN" "http://www.w3.org/Graphics/SVG/1.1/DTD/svg11.dtd">
<svg version="1.1" id="winner_usinko" xmlns="http://www.w3.org/2000/svg" xmlns:xlink="http://www.w3.org/1999/xlink" x="0px"
	 y="0px" width="265.666px" height="225.52px" viewBox="0 0 265.666 225.52" style="enable-background:new 0 0 265.666 225.52;"
	 xml:space="preserve">
<g>
	<path style="fill:#FFFFFF;" d="M167.015,132.154c0.547,3.362,0.962,18.077,0.962,18.077h0.006c0.559,0.804,1.342,1.827,1.84,2.479
		l0.109,0.146c2.136,2.925,6.621,8.357,9.552,10.472l4.711,3.4l-1.775,5.532c-0.274,0.855-6.815,21.068-14.818,31.991l-0.226,0.308
		l-0.254,0.285c-0.734,0.824-7.394,8.087-16.171,10.567c-0.787,0.249-1.599,0.531-2.401,0.83l-1.012,0.386
		c-1.315,0.451-3.569,1.269-5.829,2.293c-2.763,1.252-5.527,2.812-6.575,4.385c0,0-1.453,1.849-1.717,2.013l-0.494,0.204
		l-0.482-0.204c-0.264-0.164-1.717-2.013-1.717-2.013c-1.058-1.588-3.863-3.161-6.65-4.419c-2.543-1.147-5.065-2.03-6.238-2.422
		l-0.588-0.223c-0.808-0.301-1.618-0.583-2.398-0.829c-8.779-2.479-15.441-9.744-16.176-10.568l-0.254-0.285l-0.226-0.308
		c-8.003-10.923-14.544-31.136-14.818-31.991l-1.775-5.532l4.711-3.4c2.931-2.114,7.416-7.547,9.555-10.475l0.106-0.144
		c0.498-0.651,1.281-1.675,1.84-2.479c0,0,0.126-13.777,0.905-18.016L167.015,132.154z"/>
	<g>
		<path style="fill:#271E18;" d="M140.501,112.277c1.693-4.548,19.828-19.134,28.145-23.198c1.436-1.063,5.99-6.613,9.188-12.188
			c3.926-6.849,7.439-14.368,8.039-14.813c0.779-0.58-0.998,8.182-4.061,15.418c-1.764,4.172-3.979,7.669-4.334,8.5
			c3.305-0.898,6.488-1.35,10.717-1.602c11.834-0.704,17.9-3.312,21.938-7.331c4.033-4.02,15.793-16.854,20.828-31.9
			c3.525-8.071,5.812-17.871,5.131-26.668c-0.389-5.011-1.283-10.68-3.354-15.264c-0.582-1.292-1.188-2.271-1.5-2.959
			c-0.133-0.292,0.459-0.583,1.334,0.458c4.754,5.657,7.143,10.663,7.754,18.113c0.604,7.333-0.094,15.65-2.467,22.652
			c-0.039,0.115-0.086,0.229-0.121,0.345c-0.285,0.944,0.219,1.398,1.113,0.985c4.102-1.89,8.49-3.809,10.896-7.849
			c2.762-4.637,4.369-10.759,4.115-16.144c-0.051-1.068-0.092-2.147-0.014-3.216c0.012-0.158-0.006-0.679,0.189-0.699
			c0.18-0.019,0.439,0.53,0.51,0.661c0.172,0.328,0.318,0.67,0.447,1.018c0.277,0.744,0.477,1.518,0.637,2.296
			c0.43,2.089,0.734,4.395,0.613,6.537c-0.252,5.619-1.004,10.555-5.07,14.841c-3.391,3.571-8.146,6.323-12.127,9.146
			c-1.07,0.759-3.598,2.228-3.996,3.629c-0.326,1.157-8.582,17.693-12.824,25.062c-2.865,4.976,5.229,2.716,6.197,2.538
			c2.844-0.625,10.963-5.454,12.25-8.312c1.229-2.729,2.393-6.105,2.188-9.354c-0.125-1.999-0.25-3.916-1.918-7.083
			c-1.227-2.332,2.346,0.489,3.502,3.333c1.082,2.667,1.418,5.315,2.291,8.077c0.297,0.94,0.842,1.186,1.729,0.756
			c0.512-0.248,2.168-1.873,2.168-1.873c1.332-0.75,10.645-12.459,12.977-34.73c0.047-0.444,0.006-2.356,0.377-2.104
			c0.451,0.305,1.104,2.793,1.188,3.604c1.275,12.475-2.789,24.551-9.453,34.688c-3.088,4.698-6.736,9.153-10.859,13
			c-3.85,3.591-13.375,8.625-20.75,9.5c-4.273,0.507-8.521,1.233-12.809,1.611c-7.186,0.633-14.184,2.051-21.217,3.66
			c-10.412,2.383-20.248,6.343-28.719,13.002c-2.467,1.939-4.783,4.087-6.807,6.489c-0.637,0.755-1.979,1.197-2.949,1.031
			l-10.031-1.712C140.61,114.063,140.155,113.202,140.501,112.277z"/>
		<path style="fill:#271E18;" d="M125.294,112.277c-1.693-4.548-19.828-19.134-28.145-23.198c-1.438-1.063-5.99-6.613-9.188-12.188
			c-3.928-6.849-7.441-14.368-8.039-14.813c-0.781-0.58,0.998,8.182,4.059,15.418c1.766,4.172,3.979,7.669,4.334,8.5
			c-3.305-0.898-6.486-1.35-10.715-1.602c-11.834-0.704-17.9-3.312-21.938-7.331c-4.033-4.02-15.793-16.854-20.828-31.9
			c-3.525-8.071-5.812-17.871-5.131-26.668c0.389-5.011,1.283-10.68,3.354-15.264c0.582-1.292,1.188-2.271,1.5-2.959
			c0.133-0.292-0.459-0.583-1.334,0.458c-4.754,5.657-7.143,10.663-7.754,18.113c-0.604,7.333,0.094,15.65,2.467,22.652
			c0.039,0.115,0.086,0.229,0.121,0.345c0.285,0.944-0.219,1.398-1.113,0.985c-4.102-1.89-8.49-3.809-10.896-7.849
			c-2.762-4.637-4.369-10.759-4.115-16.144c0.051-1.068,0.092-2.147,0.014-3.216c-0.012-0.158,0.006-0.679-0.189-0.699
			c-0.18-0.019-0.439,0.53-0.51,0.661c-0.172,0.328-0.318,0.67-0.447,1.018c-0.277,0.744-0.477,1.518-0.637,2.296
			c-0.43,2.089-0.734,4.395-0.613,6.537c0.252,5.619,1.004,10.555,5.07,14.841c3.391,3.571,8.146,6.323,12.127,9.146
			c1.07,0.759,3.598,2.228,3.996,3.629c0.326,1.157,8.582,17.693,12.824,25.062c2.865,4.976-5.229,2.716-6.197,2.538
			c-2.844-0.625-10.963-5.454-12.25-8.312c-1.229-2.729-2.393-6.105-2.188-9.354c0.125-1.999,0.25-3.916,1.918-7.083
			c1.227-2.332-2.346,0.489-3.502,3.333c-1.082,2.667-1.418,5.315-2.291,8.077c-0.297,0.94-0.842,1.186-1.729,0.756
			c-0.512-0.248-2.168-1.873-2.168-1.873c-1.332-0.75-10.645-12.459-12.977-34.73c-0.047-0.444-0.006-2.356-0.377-2.104
			c-0.451,0.305-1.104,2.793-1.188,3.604c-1.275,12.475,2.789,24.551,9.453,34.688c3.088,4.698,6.736,9.153,10.859,13
			c3.85,3.591,13.375,8.625,20.75,9.5c4.273,0.507,8.521,1.233,12.809,1.611c7.186,0.633,14.184,2.051,21.217,3.66
			c10.412,2.383,20.248,6.343,28.719,13.002c2.467,1.939,4.783,4.087,6.807,6.489c0.637,0.755,1.979,1.197,2.949,1.031l10.031-1.712
			C125.185,114.063,125.64,113.202,125.294,112.277z"/>
	</g>
	<path style="fill:#271E18;" d="M131.706,102.917c0,0,0.848-0.14,1.688-0.111c0.988,0.019,1.676,0.111,1.676,0.111
		c1.686,0.244,3.77,0.661,5.727,1.36c3.984,1.011,8.09,2.503,9.57,4.558c1.312,1.823,2.893,2.561,4.639,2.704
		c1.34-0.216,2.766-0.706,4.213-1.146c3.115-0.948,20.688-8.771,27.141-8.773c0.922,0,1.615,0.158,2.008,0.521
		c0.297,0.27,0.525,0.58,0.693,0.924c1.631,3.318-2.369,9.801-6.881,15.329c-0.416,0.51-0.826,0.999-1.232,1.476
		c-0.094,0.109-0.186,0.217-0.277,0.323c-0.416,0.483-0.828,0.955-1.232,1.4c-0.26,0.281-0.514,0.554-0.77,0.82
		c-0.029,0.032-0.061,0.065-0.09,0.097c-0.082,0.086-0.162,0.167-0.242,0.249c-0.09,0.089-0.176,0.181-0.264,0.269
		c-0.125,0.126-0.252,0.248-0.375,0.37c-0.08,0.078-0.164,0.159-0.242,0.235c-0.139,0.132-0.275,0.258-0.412,0.384
		c-0.066,0.062-0.133,0.125-0.199,0.186c-0.404,0.366-0.807,0.706-1.205,1.02c-0.062,0.05-0.125,0.096-0.188,0.144
		c-0.133,0.104-0.27,0.207-0.404,0.304c-0.074,0.055-0.148,0.104-0.225,0.157c-0.121,0.085-0.242,0.169-0.363,0.248
		c-0.082,0.054-0.16,0.102-0.24,0.151c-0.113,0.073-0.23,0.146-0.344,0.211c-0.082,0.049-0.164,0.094-0.246,0.139
		c-0.111,0.062-0.223,0.122-0.334,0.178c-0.084,0.043-0.166,0.082-0.248,0.123c-0.111,0.051-0.221,0.101-0.33,0.147
		c-0.084,0.037-0.164,0.071-0.248,0.104c-0.109,0.043-0.219,0.082-0.33,0.12c-0.08,0.028-0.16,0.056-0.24,0.081
		c-0.113,0.033-0.225,0.064-0.336,0.093c-0.078,0.021-0.156,0.042-0.234,0.06c-0.115,0.025-0.232,0.045-0.348,0.064
		c-0.072,0.013-0.145,0.026-0.217,0.035c-0.127,0.017-0.254,0.025-0.381,0.035c-0.061,0.003-0.121,0.011-0.184,0.013
		c-0.186,0.008-0.375,0.007-0.561-0.005c-0.26-0.017-0.52-0.05-0.777-0.102c-1.809-0.365-3.506-0.581-4.936-0.582
		c-1.838-0.001-3.236,0.355-3.865,1.212c0,0-0.445-0.511-1.104-0.571c-0.027-0.002-0.059,0.004-0.088,0.003
		c0,0,1.744,14.8,2.258,17.372c0.516,2.573-0.514,4.106-0.9,5.65c-0.385,1.544,1.502,4.054,3.732,6.971
		c0,0,6.254,8.578,11.336,12.246c0,0-6.326,19.707-13.654,29.708c0,0-5.646,6.338-12.477,8.219c0,0-11.193,3.497-13.57,7.063
		c0,0-1.453,1.849-1.717,2.013l-0.482,0.204l-0.484,0.189l-0.51-0.189l-0.482-0.204c-0.264-0.164-1.717-2.013-1.717-2.013
		c-2.377-3.566-13.57-7.063-13.57-7.063c-6.83-1.881-12.477-8.219-12.477-8.219c-7.328-10.001-13.654-29.708-13.654-29.708
		c5.082-3.668,11.336-12.246,11.336-12.246c2.23-2.917,4.117-5.427,3.732-6.971c-0.387-1.544-1.416-3.077-0.9-5.65
		c0.514-2.572,2.258-17.372,2.258-17.372c-0.027,0.001-0.059-0.005-0.086-0.003c-0.658,0.061-1.105,0.571-1.105,0.571
		c-0.627-0.856-2.025-1.213-3.865-1.212c-1.43,0.001-3.125,0.217-4.934,0.582c-0.26,0.052-0.52,0.085-0.779,0.102
		c-0.186,0.012-0.373,0.013-0.561,0.005c-0.062-0.002-0.121-0.01-0.184-0.013c-0.127-0.01-0.254-0.019-0.381-0.035
		c-0.072-0.009-0.145-0.022-0.217-0.035c-0.115-0.02-0.23-0.039-0.346-0.064c-0.078-0.018-0.156-0.039-0.234-0.06
		c-0.113-0.028-0.225-0.06-0.336-0.093c-0.08-0.025-0.16-0.053-0.242-0.081c-0.111-0.038-0.219-0.077-0.33-0.12
		c-0.082-0.032-0.164-0.066-0.248-0.104c-0.109-0.047-0.219-0.097-0.328-0.147c-0.084-0.041-0.164-0.08-0.248-0.123
		c-0.111-0.056-0.223-0.116-0.334-0.178c-0.084-0.045-0.164-0.09-0.246-0.139c-0.115-0.065-0.23-0.138-0.344-0.211
		c-0.082-0.05-0.16-0.098-0.242-0.151c-0.119-0.079-0.242-0.163-0.363-0.248c-0.074-0.053-0.148-0.103-0.225-0.157
		c-0.133-0.097-0.27-0.2-0.402-0.304c-0.062-0.048-0.127-0.094-0.189-0.144c-0.398-0.313-0.799-0.653-1.205-1.02
		c-0.064-0.061-0.133-0.124-0.199-0.186c-0.137-0.126-0.273-0.252-0.412-0.384c-0.078-0.076-0.16-0.157-0.24-0.235
		c-0.125-0.122-0.25-0.244-0.377-0.37c-0.088-0.088-0.174-0.18-0.262-0.269c-0.08-0.082-0.162-0.163-0.242-0.249
		c-0.031-0.031-0.062-0.064-0.092-0.097c-0.254-0.267-0.51-0.539-0.768-0.82c-0.406-0.445-0.818-0.917-1.234-1.4
		c-0.092-0.106-0.184-0.214-0.277-0.323c-0.404-0.477-0.814-0.966-1.23-1.476c-4.514-5.528-8.514-12.011-6.883-15.329
		c0.17-0.344,0.398-0.654,0.693-0.924c0.395-0.363,1.088-0.521,2.01-0.521c6.451,0.002,24.025,7.825,27.139,8.773
		c1.447,0.439,2.875,0.93,4.215,1.146c1.744-0.144,3.324-0.881,4.637-2.704c1.48-2.055,5.586-3.547,9.57-4.558
		c1.957-0.699,4.041-1.116,5.727-1.36c0,0,0.688-0.093,1.676-0.111c0.84-0.028,1.688,0.111,1.688,0.111"/>
</g>
</svg>
