<?xml version="1.0" encoding="utf-8"?>
<!-- Generator: Adobe Illustrator 16.0.0, SVG Export Plug-In . SVG Version: 6.00 Build 0)  -->
<!DOCTYPE svg PUBLIC "-//W3C//DTD SVG 1.1//EN" "http://www.w3.org/Graphics/SVG/1.1/DTD/svg11.dtd">
<svg version="1.1" id="Capa_1" xmlns="http://www.w3.org/2000/svg" xmlns:xlink="http://www.w3.org/1999/xlink" x="0px" y="0px"
	 width="612px" height="585.834px" viewBox="0 0 612 585.834" style="enable-background:new 0 0 612 585.834;" xml:space="preserve"
	>
<g>
	<rect x="55.636" y="167.909" style="fill:#FFFFFF;" width="500.727" height="27.818"/>
	<path style="fill:#FFFFFF;" d="M159.955,112.273h13.907c11.519,0,20.863-9.291,20.863-20.919V21.919
		C194.727,10.375,185.408,1,173.864,1h-13.907c-11.519,0-20.864,9.291-20.864,20.919v69.407
		C139.091,102.898,148.41,112.273,159.955,112.273z"/>
	<rect x="222.545" y="56.635" style="fill:#FFFFFF;" width="166.909" height="27.817"/>
	<path style="fill:#FFFFFF;" d="M500.728,56.635v27.817h83.454v275.766L27.818,511.78V84.455h83.455V56.635H0v500.728
		c0,27.818,30.6,27.818,30.6,27.818h553.582c0,0,27.816,0,27.816-27.818V56.635H500.728z"/>
	<path style="fill:#FFFFFF;" d="M429.43,309.56C424.365,299.489,427.035,304.83,429.43,309.56L429.43,309.56z"/>
	<path style="fill:#FFFFFF;" d="M436.954,112.273h13.908c11.519,0,20.863-9.291,20.863-20.919V21.919
		C471.727,10.375,462.407,1,450.864,1h-13.908c-11.518,0-20.863,9.291-20.863,20.919v69.407
		C416.091,102.898,425.409,112.273,436.954,112.273z"/>
</g>
</svg>
