<?xml version="1.0" encoding="utf-8"?>
<!-- Generator: Adobe Illustrator 16.0.0, SVG Export Plug-In . SVG Version: 6.00 Build 0)  -->
<!DOCTYPE svg PUBLIC "-//W3C//DTD SVG 1.1//EN" "http://www.w3.org/Graphics/SVG/1.1/DTD/svg11.dtd">
<svg version="1.1" id="Layer_1" xmlns="http://www.w3.org/2000/svg" xmlns:xlink="http://www.w3.org/1999/xlink" x="0px" y="0px"
	 width="76.833px" height="87.52px" viewBox="0 0 76.833 87.52" style="enable-background:new 0 0 76.833 87.52;"
	 xml:space="preserve">
<g>
	<path style="fill:#FFFFFF;" d="M73.762,19.033H3.112c-1.697,0-3.073,1.375-3.073,3.072v39.933c0,1.693,1.376,3.071,3.073,3.071
		h70.65c1.695,0,3.07-1.378,3.07-3.071V22.106C76.833,20.408,75.458,19.033,73.762,19.033z M72.258,60.024
		c0,0.282-0.229,0.514-0.514,0.514H5.126c-0.283,0-0.512-0.23-0.512-0.514V24.121c0-0.283,0.229-0.515,0.512-0.515h66.619
		c0.283,0,0.514,0.23,0.514,0.515V60.024z"/>
	<path style="fill:#FFFFFF;" d="M56.186,70.229H45.902c0.027-0.167,0.045-0.338,0.045-0.511v-1.537c0-1.696-1.376-1.792-3.069-1.792
		h-9.215c-1.698,0-3.074,0.096-3.074,1.792v1.537c0,0.173,0.02,0.344,0.045,0.511H20.35c-1.415,0-2.56,1.146-2.56,2.561h40.957
		C58.747,71.374,57.6,70.229,56.186,70.229z"/>
</g>
</svg>
