<?xml version="1.0" encoding="utf-8"?>
<!-- Generator: Adobe Illustrator 16.0.0, SVG Export Plug-In . SVG Version: 6.00 Build 0)  -->
<!DOCTYPE svg PUBLIC "-//W3C//DTD SVG 1.1//EN" "http://www.w3.org/Graphics/SVG/1.1/DTD/svg11.dtd">
<svg version="1.1" id="Layer_1" xmlns="http://www.w3.org/2000/svg" xmlns:xlink="http://www.w3.org/1999/xlink" x="0px" y="0px"
	 width="76.833px" height="87.52px" viewBox="0 0 76.833 87.52" style="enable-background:new 0 0 76.833 87.52;"
	 xml:space="preserve">
<g>
	<path style="fill:#FFFFFF;" d="M4.318,82.604h68.303c2.425,0,4.399-1.976,4.399-4.403V9.9c0-2.426-1.975-4.4-4.399-4.4H4.318
		c-2.427,0-4.401,1.976-4.401,4.4v68.306C-0.083,80.628,1.891,82.604,4.318,82.604z M5.748,11.332h65.439v65.44H5.748V11.332z"/>
	<path style="fill:#FFFFFF;" d="M52.659,23.139c-2.921-2.563-6.841-3.843-11.761-3.843h-19.69c-0.902,0-1.633,0.732-1.633,1.632
		v46.408c0,0.9,0.731,1.632,1.633,1.632h7.047c0.902,0,1.633-0.731,1.633-1.632V52.74c0-0.901,0.73-1.633,1.632-1.633h8.708
		c5.396,0,9.553-1.212,12.457-3.639c2.907-2.425,4.362-6.57,4.362-12.433C57.047,29.665,55.586,25.7,52.659,23.139z M44.765,40.761
		c-1.316,1.192-3.158,1.787-5.526,1.787H31.52c-0.902,0-1.632-0.732-1.632-1.635V29.554c0-0.901,0.73-1.632,1.632-1.632h7.719
		c2.368,0,4.21,0.548,5.526,1.649c1.314,1.101,1.97,2.942,1.97,5.527C46.735,37.682,46.079,39.571,44.765,40.761z"/>
</g>
</svg>
