<?xml version="1.0" encoding="utf-8"?>
<!-- Generator: Adobe Illustrator 17.1.0, SVG Export Plug-In . SVG Version: 6.00 Build 0)  -->
<!DOCTYPE svg PUBLIC "-//W3C//DTD SVG 1.1//EN" "http://www.w3.org/Graphics/SVG/1.1/DTD/svg11.dtd">
<svg version="1.1" xmlns="http://www.w3.org/2000/svg" xmlns:xlink="http://www.w3.org/1999/xlink" x="0px" y="0px"
	 width="84.125px" height="88.172px" viewBox="0 0 84.125 88.172" style="enable-background:new 0 0 84.125 88.172;"
	 xml:space="preserve">
<g id="Layer_1">
	<path style="fill:#FFFFFF;" d="M84.125,15.85c-38.062-33.159-79.603-4.233-83.83,0c0,0,6.173,4.972,4.938,20.494
		c0,0-2.59,9.446-3.704,13.972c0,0-2.161,11.092,3.704,17.278c0,0,5.865,8.623,20.681,12.652c0,0,14.944,2.434,16.149,7.798
		c1.206-5.363,16.442-7.798,16.442-7.798c14.816-4.029,20.682-12.652,20.682-12.652c5.865-6.187,3.703-17.278,3.703-17.278
		c-1.228-4.807-3.703-13.972-3.703-13.972C77.951,20.821,84.125,15.85,84.125,15.85z M54.964,23.377h-5.889
		c0.999,0.015-3.117-0.101-3.377,3.637v6.668h9.094l-1.213,8.92h-7.881l-0.01,23.29l-9.345-0.014V42.603h-7.707v-9.006h7.708v-8.056
		c0.279,0.089,1.067-9.443,9.44-10.479h9.18V23.377z"/>
	<path style="display:none;fill:#632626;" d="M84.018,15.838c-40.906-35.636-83.723,0-83.723,0s6.174,4.971,4.939,20.494
		c0,0-2.538,9.164-3.705,13.971c0,0-2.16,11.092,3.705,17.28c0,0,5.864,8.623,20.681,12.651c0,0,14.943,2.319,16.148,7.684
		c1.205-5.363,16.334-7.684,16.334-7.684c14.816-4.028,20.682-12.651,20.682-12.651c5.865-6.188,3.704-17.28,3.704-17.28
		c-0.994-4.757-3.704-13.971-3.704-13.971C77.844,20.81,84.018,15.838,84.018,15.838z M47.87,52.495
		c-4.604,5.927-13.111,7.665-20.032,5.341c-7.345-2.413-12.685-10.92-12.526-18.673c-0.363-9.581,8.029-17.325,17.619-17.441
		c4.887-0.416,9.641,1.482,13.342,4.578c-1.518,1.668-3.062,3.318-4.711,4.861c-3.256-1.977-7.177-3.486-10.982-2.146
		c-6.139,1.748-9.856,8.995-7.584,15.001c1.879,6.272,9.509,9.712,15.489,7.08c3.096-1.109,5.136-3.966,6.031-7.035
		c-3.548-0.071-7.097-0.028-10.645-0.126c-0.008-2.111-0.018-4.213-0.008-6.324c5.917-0.009,11.843-0.027,17.769,0.027
		C51.995,42.809,51.232,48.344,47.87,52.495z M71.562,42.915c-1.765,0.009-3.539,0.018-5.304,0.027
		c-0.018,1.774-0.026,3.541-0.036,5.313c-1.766-0.008-3.531,0-5.287,0c-0.019-1.772-0.019-3.539-0.037-5.304
		c-1.766-0.018-3.539-0.026-5.303-0.036v-5.288c1.764-0.009,3.53-0.016,5.303-0.035c0.011-1.765,0.026-3.54,0.045-5.305h5.277
		c0.01,1.766,0.027,3.541,0.037,5.305c1.766,0.019,3.539,0.025,5.305,0.035V42.915L71.562,42.915z"/>
</g>
<g id="Layer_2">
</g>
</svg>
