<?xml version="1.0" encoding="utf-8"?>
<!-- Generator: Adobe Illustrator 16.0.0, SVG Export Plug-In . SVG Version: 6.00 Build 0)  -->
<!DOCTYPE svg PUBLIC "-//W3C//DTD SVG 1.1//EN" "http://www.w3.org/Graphics/SVG/1.1/DTD/svg11.dtd">
<svg version="1.1" id="Layer_1" xmlns="http://www.w3.org/2000/svg" xmlns:xlink="http://www.w3.org/1999/xlink" x="0px" y="0px"
	 width="181.75px" height="20.266px" viewBox="0 0 181.75 20.266" style="enable-background:new 0 0 181.75 20.266;"
	 xml:space="preserve">
<path style="fill:#B7936C;" d="M5.039,8.574c0,0,3.945,0.008,4.071,0.029L9.068,4.435l4.947-4.327V15.46l-4.934,4.716L9.11,11.04
	l-4.188,0.038l-0.013,4.448L0,20.176c0-0.089,0-15.56,0-15.56l4.981-4.516"/>
<path style="fill:#B7936C;" d="M108.062,11.28c-0.126,3.466-4.347,6.299-7.267,7.938c-2.002,1.043-6.173,0.969-6.277-1.454l0,0
	L94.58,4.741l4.88-4.303l0.062,15.313c1.714-0.551,3.506-2.291,3.629-4.751l0.05-6.288l4.823-4.292L108.062,11.28z"/>
<polygon style="fill:#B7936C;" points="65.375,15.617 72.046,15.615 68.192,19.244 60.475,19.255 60.463,5.432 65.438,1.021 "/>
<path style="fill:#B7936C;" d="M89.116,0.764c2.502,1.565,3.372,1.988,4.505,2.859l-2.604,2.684
	c-1.439-0.811-1.902-1.146-3.821-2.189c-1.334-0.893-3.67,0.969-2.335,2.311c1.158,1.164,3.003,2.087,4.922,3.204
	c2.253,1.341,2.75,4.09,1.584,5.888c-0.619,1.013-1.835,2.459-2.502,3.13c-1.796,1.805-3.967,2.179-7.058,0.714l-4.054-2.856
	l3.053-3.225c1.515,0.82,3.204,2.95,5.507,2.324c0.9-0.626,0.599-1.52,0.098-2.146c-2.603-2.862-8.409-3.935-6.806-8.406
	c0.852-1.113,1.271-1.656,2.47-3.197C83.275,0.318,86.613-0.801,89.116,0.764z"/>
<path style="fill:#B7936C;" d="M30.583,2.437c-0.407-1.197-0.122-1.034-1.073-1.57c-1.021-0.576-5.701-0.358-8.704,0.536
	c-4.905,2.415-5.005,6.148-4.855,11.089c0.071,2.331-0.2,5.545,2.603,6.797c5.005,1.61,9.097-1.5,11.012-4.382
	C32.206,10.933,31,3.666,30.583,2.437z M26.597,12.608c-0.501,1.118-3.848,3.605-4.573,3.158c-0.726-0.447-0.49-1.055-0.49-1.055
	l-0.136-8.718c0.375-1.564,1.652-2.125,2.728-2.236c1.552-0.218,2.092,0.376,2.388,1.008C27.014,5.834,26.597,8.119,26.597,12.608z"
	/>
<path style="fill:#B7936C;" d="M122.47,8.319c1.979-1.897,4.407-4.104,2.029-6.786c-0.692-0.745-2.32-0.892-4.319-1.04L114.15,0.48
	l-4.175,3.677l0.041,15.639l4.974-4.402l-0.013-1.1l0.95-0.81l6.132,5.418l3.304-3.13l-5.906-5.008L122.47,8.319z M115.354,10.588
	l0.062-6.365c-0.257-0.229,4.186-0.018,4.186-0.018c1.019,0.095,1.509,0.066,1.883,0.451c0,0,0.501,0.342-0.5,1.253L115.354,10.588z
	"/>
<path style="fill:#B7936C;" d="M176.457,0.195h-0.498l-4.692,4.248c0,0-4.972,15.509-5.261,15.637
	c0.18-0.08,4.458-3.285,4.458-3.285l0.652-2.006l5.782-0.005l1.454,4.058l3.373-2.979L176.457,0.195z M172.161,11.839l1.827-5.159
	l1.689,5.142L172.161,11.839z"/>
<path style="fill:#B7936C;" d="M158.286,0.85c0,0-4.104,3.627-4.104,3.615h-4.066l-0.013,10.312l-4.98,4.649l-0.013-14.932
	l-3.997,0.016c0.012-0.118,4.102-3.661,4.102-3.661C149.819,0.85,153.882,0.85,158.286,0.85z"/>
<path style="fill:#B7936C;" d="M172.995,0.85c0,0-4.105,3.627-4.105,3.615h-4.066l-0.012,10.312l-4.982,4.649l-0.012-14.932
	l-3.997,0.016c0.012-0.118,4.102-3.661,4.102-3.661C164.526,0.85,168.59,0.85,172.995,0.85z"/>
<polyline style="fill:#B7936C;" points="135.278,11.905 131.788,11.905 131.788,15.661 139.069,15.635 135.084,19.237 
	126.957,19.237 126.906,5.454 131.851,1.039 143.676,1.085 139.546,4.75 131.788,4.777 131.788,8.506 139.07,8.506 "/>
<path style="fill:#B7936C;" d="M49.402,0.85c0,0-4.104,3.627-4.104,3.615H41.23l-0.013,10.312l-4.979,4.649L36.225,4.495
	l-3.999,0.016C32.239,4.393,36.33,0.85,36.33,0.85C40.935,0.85,44.997,0.85,49.402,0.85z"/>
<polyline style="fill:#B7936C;" points="54.483,11.905 50.991,11.905 50.991,15.661 58.274,15.635 54.289,19.237 46.16,19.237 
	46.11,5.454 51.054,1.039 63.755,1.085 59.625,4.75 50.991,4.777 50.991,8.506 58.274,8.506 "/>
</svg>
