<?xml version="1.0" encoding="utf-8"?>
<!-- Generator: Adobe Illustrator 16.0.0, SVG Export Plug-In . SVG Version: 6.00 Build 0)  -->
<!DOCTYPE svg PUBLIC "-//W3C//DTD SVG 1.1//EN" "http://www.w3.org/Graphics/SVG/1.1/DTD/svg11.dtd">
<svg version="1.1" id="Capa_1" xmlns="http://www.w3.org/2000/svg" xmlns:xlink="http://www.w3.org/1999/xlink" x="0px" y="0px"
	 width="401.998px" height="401.998px" viewBox="0 0 401.998 401.998" style="enable-background:new 0 0 401.998 401.998;"
	 xml:space="preserve">
<g>
	<path style="fill:#FFFFFF;" d="M401.131,311.475c-1.139-3.426-8.373-8.475-21.697-15.129c-3.61-2.1-8.754-4.949-15.41-8.566
		c-6.662-3.617-12.709-6.95-18.13-9.996c-5.434-3.045-10.521-5.995-15.276-8.846c-0.76-0.571-3.139-2.234-7.136-5
		c-4.001-2.758-7.375-4.807-10.142-6.142c-2.759-1.325-5.473-1.993-8.138-1.993c-3.806,0-8.56,2.714-14.268,8.135
		c-5.708,5.428-10.944,11.324-15.7,17.706c-4.757,6.379-9.802,12.273-15.126,17.7c-5.332,5.427-9.713,8.138-13.135,8.138
		c-1.72,0-3.86-0.479-6.429-1.424c-2.564-0.951-4.518-1.768-5.856-2.425c-1.328-0.671-3.607-1.997-6.847-4.004
		c-3.242-1.999-5.048-3.094-5.428-3.283c-26.075-14.471-48.438-31.029-67.093-49.678c-18.649-18.656-35.211-41.019-49.676-67.097
		c-0.19-0.381-1.287-2.19-3.284-5.424c-2-3.237-3.333-5.52-3.999-6.854c-0.666-1.331-1.475-3.281-2.425-5.852
		s-1.428-4.709-1.428-6.424c0-3.424,2.714-7.806,8.139-13.136c5.424-5.325,11.326-10.371,17.7-15.128
		c6.379-4.755,12.273-9.989,17.699-15.697c5.426-5.711,8.138-10.469,8.138-14.273c0-2.663-0.666-5.378-1.997-8.137
		c-1.332-2.767-3.378-6.141-6.141-10.139c-2.762-3.996-4.427-6.373-4.999-7.14c-2.852-4.755-5.799-9.846-8.848-15.271
		c-3.049-5.426-6.377-11.472-9.995-18.132c-3.615-6.657-6.468-11.8-8.562-15.414C98.986,9.233,93.943,1.997,90.516,0.859
		C89.183,0.288,87.183,0,84.521,0C79.378,0,72.67,0.95,64.392,2.856c-8.282,1.901-14.801,3.897-19.56,5.996
		C35.317,12.847,25.23,24.457,14.57,43.678C4.863,61.566,0.01,79.271,0.01,96.78c0,5.135,0.333,10.131,0.999,14.989
		c0.666,4.853,1.856,10.326,3.571,16.418c1.712,6.09,3.093,10.612,4.137,13.56c1.047,2.948,2.996,8.229,5.854,15.845
		c2.852,7.614,4.567,12.275,5.138,13.988c6.661,18.654,14.562,35.309,23.695,49.964c15.03,24.362,35.541,49.539,61.521,75.521
		c25.981,25.98,51.153,46.49,75.519,61.526c14.655,9.134,31.312,17.03,49.965,23.696c1.714,0.568,6.375,2.279,13.986,5.143
		c7.612,2.854,12.896,4.805,15.845,5.852c2.949,1.048,7.474,2.432,13.559,4.146c6.1,1.715,11.566,2.903,16.419,3.576
		c4.856,0.655,9.854,0.994,14.989,0.994c17.508,0,35.214-4.854,53.105-14.562c19.219-10.656,30.825-20.745,34.821-30.271
		c2.104-4.754,4.095-11.271,5.998-19.555c1.907-8.276,2.855-14.983,2.855-20.126C401.99,314.814,401.703,312.819,401.131,311.475z"
		/>
</g>
</svg>
