<?xml version="1.0" encoding="utf-8"?>
<!-- Generator: Adobe Illustrator 16.0.0, SVG Export Plug-In . SVG Version: 6.00 Build 0)  -->
<!DOCTYPE svg PUBLIC "-//W3C//DTD SVG 1.1//EN" "http://www.w3.org/Graphics/SVG/1.1/DTD/svg11.dtd">
<svg version="1.1" id="Layer_1" xmlns="http://www.w3.org/2000/svg" xmlns:xlink="http://www.w3.org/1999/xlink" x="0px" y="0px"
	 width="208.667px" height="134px" viewBox="0 0 208.667 134" style="enable-background:new 0 0 208.667 134;" xml:space="preserve"
	>
<g>
	<path style="fill:#FFFFFF;" d="M202.176,132.17c0.815-0.719,1.685-0.719,2.501,0C203.843,132.17,203.01,132.17,202.176,132.17z"/>
	<path style="fill:#FFFFFF;" d="M161.661,74.888c0,0.397,0,0.727,0,1.106c-2.534,2.146-4.467,4.996-7.261,6.683
		c-2.075-0.486-3.702-1.575-5.538-2.197c-0.887-0.3-1.861,0.091-2.533-0.463c-0.782-0.646-1.589-0.313-2.363-0.317
		c-0.852-0.003-1.771-0.361-2.577,0.426c-0.256,0.25-0.959,0.042-1.458,0.042c-1.913,0-3.826,0.006-5.739-0.002
		c-1.119-0.005-2.205,0.014-3.306-0.454c-0.92-0.392-1.984,0.133-3.066-0.453c-0.836-0.453-2.116-0.052-3.195-0.1
		c-1.549-0.069-2.983-0.442-3.932-1.755c0-1.21,0-2.368,0-3.582c1.173-1.083,2.36-2.181,3.416-3.154c1.024,0,1.772,0.048,2.512-0.01
		c1.764-0.137,3.52-0.394,5.284-0.472c1.909-0.084,3.826-0.019,5.739-0.019c1.83,0,3.731,0.319,5.474-0.069
		c3.188-0.713,6.367-0.236,9.541-0.435c0.739-0.047,1.494-0.013,2.023,0.519c0.799,0.803,1.929,0.317,2.863,0.991
		C159.089,72.289,160.311,73.685,161.661,74.888z"/>
	<path style="fill:#FFFFFF;" d="M100.589,54.667c0.056,1.108,1.096,1.25,1.455,2.031s1.229,1.328,1.867,1.971
		c0.515,0,1.014,0,1.514,0.001c0.236,0.236,0.472,0.472,0.768,0.769c-2.096,0.415-4.145,0.821-6.421,1.272
		c-0.691,0.863-1.492,1.863-2.375,2.965c-0.788,0-1.681,0-2.503,0c-0.286,0.309-0.496,0.535-0.83,0.894c0.715,0,1.272,0,1.772,0
		c0.65,0.679,1.226,1.278,1.834,1.912c0,2.433,0,4.932,0,7.647c0.264,0.189,0.653,0.47,1.146,0.824
		c-2.146,1.111-4.101,2.175-6.488,1.621c-0.273-0.272-0.567-0.567-0.884-0.884c-0.638,0-1.299,0-1.874,0
		c-0.907-0.655-1.746-1.262-2.738-1.979c-1.011-0.304-1.983,0.154-2.94,0.936c-2.09,0-4.251,0-6.456,0
		c-0.958-0.979-2.079-1.639-3.584-1.495c-0.908,0.087-1.832,0.016-2.772,0.016c-0.588-0.342-1.195-0.694-1.736-1.009
		c-0.079-0.246-0.175-0.396-0.166-0.539c0.155-2.214,1.652-3.843,3.859-3.915c1.309-0.043,2.491-0.353,3.674-0.818
		c0.287-0.113,0.621-0.248,0.906-0.203c1.98,0.317,3.94-0.185,5.771-0.614c2.711-0.637,5.386-0.121,8.099-0.468
		c0.191-0.191,0.427-0.427,0.817-0.816c-2.883-0.234-5.929,0.182-7.85-2.878c1.117-0.399,2.096-0.197,3.044-0.232
		c0.916-0.034,1.833-0.008,2.749-0.008c0.973,0,1.945,0,3.333,0c-1.14-1.706-2.042-3.056-3.005-4.497
		c0.575-0.796,1.153-1.295,2.24-1.586c1.61-0.432,3.159-0.983,4.857-0.923C98.587,54.694,99.504,54.667,100.589,54.667z"/>
	<path style="fill:#FFFFFF;" d="M190.738,63.659c1.584-0.916,3.367-1.17,5.236-0.943c0.177,0.177,0.354,0.354,0.615,0.616
		c0,1.134,0,2.362,0,3.672c-0.154,0.154-0.39,0.39-0.664,0.664c-0.789,0-1.627-0.078-2.441,0.023
		c-0.682,0.085-1.338,0.379-1.438,0.409c-0.937,0.651-1.474,1.025-1.938,1.348c0.118,0.333,0.126,0.552,0.228,0.612
		c1.945,1.163,3.774,0.505,5.847-0.337c0.192,0.612,0.423,1.343,0.614,1.949c-1.749,1.887-3.357,3.62-5.084,5.481
		c-0.088,0-0.417,0-0.609,0c-0.917,0.704-1.74,1.336-2.433,1.867c-2.334,0.161-4.506,0.312-6.883,0.476
		c-0.84-0.882-1.868-1.963-3.051-3.204c0-0.474,0-1.198,0-2.103c1.128-0.486,2.288-1.196,3.544-1.475
		c1.638-0.362,3.351-0.381,4.861-0.531c0.72-0.727,1.346-1.358,2.066-2.086c-0.415-0.307-0.91-0.625-1.348-1.009
		c-0.5-0.438-0.949-0.936-1.428-1.414c-5.322,0-10.651,0-16.088,0c-0.358-0.549-0.744-1.141-1.155-1.771c0-1.282,0-2.611,0-4.037
		c0.198-0.153,0.46-0.356,0.854-0.662c0.625,0,1.447,0,2.435,0c0.576-0.766,1.193-1.586,1.86-2.472c0.433,0,0.915,0,1.627,0
		c0.56,0.96,1.812,1.349,2.897,1.368c2.771,0.048,5.131,1.304,7.638,2.14c0.952,0.318,1.912,0.614,2.865,0.929
		C189.805,63.314,190.235,63.479,190.738,63.659z"/>
	<path style="fill:#FFFFFF;" d="M109.102,52.273c0.173,1.572,2.847,2.367,0.812,3.818c-3.031,0.363-6.057,0.144-8.462-2.396
		c-1.055-0.145-2.024,0.125-3.035,0.432c-0.989,0.3-1.782-0.445-2.607-0.995c-0.209-0.896-0.394-1.758,0.553-2.401
		c1.706-0.338,3.584,0.513,5.247-0.86c0-0.313,0-0.795,0-1.066c0.758-0.768,1.382-1.401,1.994-2.023
		c0.461-0.18,0.962-0.375,1.493-0.582c0-2.011,0-3.901,0-6.033c1.124,0,2.179,0.055,3.226-0.014c1.269-0.083,2.532,0.223,3.817-0.42
		c0.731-0.366,1.981-0.386,2.666,0.011c0.978,0.565,1.896,0.384,2.831,0.404c2.576,0.056,5.154,0.02,7.815,0.02
		c0.344,0.389,0.726,0.822,1.161,1.315c0,0.606,0,1.331,0,2.228c-2.391-0.246-4.641,0.162-6.858,1.072
		c-1.104-0.622-2.184-1.23-3.624-2.042c-0.285,0-1.012,0-1.758,0c-0.545,0.463-1.136,0.941-1.697,1.449
		c-0.478,0.431-0.923,0.898-1.423,1.389c1.037,0,2.096,0,3.14,0c0.187,1.085,0.121,1.756-0.224,2.516
		c0.258,1.379,1.416,1.999,2.464,2.522c0.819,0.409,1.098,0.859,1.035,1.729c-0.868,0.567-1.769,1.154-2.732,1.783
		c-0.752,0-1.573,0-2.457,0C111.621,53.603,110.702,53.042,109.102,52.273c-0.302,0.199-0.202,0.387-0.131,0.377
		c0.239-0.034,0.468-0.139,0.701-0.216C109.37,52.348,109.069,52.262,109.102,52.273z"/>
	<path style="fill:#FFFFFF;" d="M181.369,29.109c0.891,0.891,1.597,1.597,2.303,2.302c0.001,0.332,0.001,0.664,0.001,1.152
		c1.291,1.248,2.66,2.572,3.984,3.854c0.294,1.215-0.698,1.609-1.281,2.263c-0.656,0-1.317,0-2.116,0
		c-1.267,0.906-2.619,1.873-4.195,3c-0.068,0.015-0.456,0.087-0.836,0.189c-0.297,0.08-0.65,0.36-0.863,0.273
		c-2.382-0.979-4.867-0.194-7.58-0.57c-0.167-0.243-0.495-0.716-1.047-1.516c0,0.006,0-0.476,0-1.216
		c2.504-2.47,6.066-3.169,9.618-4.379c-2.623-1.429-5.267-0.476-8.059-0.897c-0.231-0.267-0.644-0.741-1.056-1.216
		c0.628-0.627,1.274-1.274,2.057-2.056c-0.575-0.461-1.15-0.922-1.794-1.438c0.238-0.596,0.438-1.095,0.646-1.615
		c1.012,0,1.904,0,2.848,0c0.244,0.244,0.538,0.539,0.88,0.879c1.435,0,2.918,0,4.378,0
		C179.979,28.488,180.317,29.557,181.369,29.109z"/>
	<path style="fill:#FFFFFF;" d="M70.166,87.168c-2.604-1.072-4.114-3.185-4.65-6.165c0.53-0.436,0.975-0.802,1.595-1.312
		c1.335-0.15,2.973,0.136,4.789-0.178c-0.839-1.38-2.315-1.591-3.227-2.599c2.008-1.29,4.271-0.967,6.295-0.582
		c1.987,0.378,3.722,0.613,5.425-0.623c0.111-0.081,0.316-0.033,0.603-0.054c1.848,0.586,3.445,1.701,4.742,3.477
		c-0.276,2.369-3.15,2.518-4.119,4.594c0.273,0.329,0.622,0.751,1.032,1.245c0,0.396,0,0.889,0,1.491
		c-0.493,0.217-1.037,0.646-1.598,0.67c-1.602,0.069-3.236,0.232-4.775-0.464c-1.877-0.849-3.678-0.839-5.366,0.488
		C70.808,87.239,70.586,87.168,70.166,87.168z M74.746,80.858c0.386-0.406,0.657-0.693,1.014-1.069c-1.22,0-2.155,0-3.552,0
		C73.269,80.236,73.887,80.496,74.746,80.858z"/>
	<path style="fill:#FFFFFF;" d="M112.092,33.875c-1.422-1.598-3.005-2.695-3.935-4.516c0.566-0.376,1.14-0.756,1.712-1.137
		c1.406-0.29,2.817,0.031,4.296-0.458c1.805-0.598,3.642,0.003,5.014,1.622c0.979,1.155,2.042,2.214,3.77,2.375
		c0.69,0.064,1.315,0.827,2.142,1.388c1.492,0.18,3.389-0.479,4.922,1.105c1.142,0,2.369,0,4.046,0
		c-0.726,0.478-1.123,0.739-1.692,1.114c1.266,0.729,2.274,1.312,3.256,1.877c0,0.993,0,1.885,0,2.835
		c-1.232,1.059-2.75,0.704-4.02,0.507c-1.542-0.239-3.249-0.46-4.345-1.576c0.188-1.003,0.343-1.833,0.474-2.533
		c-0.591-0.345-0.98-0.758-1.393-0.78c-1.487-0.082-2.98-0.032-4.38-0.032c-0.332,0.549-0.616,1.017-0.749,1.235
		c-0.788-0.037-1.5-0.288-1.898-0.039c-0.616,0.386-1.078,0.986-1.915,0.831c-1.326,1.496-3.203,1.162-4.862,1.637
		c-0.615-0.737-1.145-1.373-1.786-2.144c0.96-0.616,2.067-1.325,3.152-2.021c0.521,0,1.021,0,0.964,0
		c0.855-0.615,1.386-0.997,2.312-1.664c-0.646-0.223-1.057-0.364-1.467-0.506c0.091-0.101,0.182-0.201,0.272-0.301
		c-0.825,0-1.649,0-2.516,0C113.082,33.023,112.662,33.385,112.092,33.875z"/>
	<path style="fill:#FFFFFF;" d="M166.27,60.167c-3.311,0-6.443-0.055-9.573,0.022c-1.677,0.041-3.345,0.379-5.022,0.459
		c-1.738,0.084-3.488-0.048-5.226,0.048c-0.839,0.045-1.661,0.395-2.653,0.647c0-0.892,0-1.604,0-2.421
		c0.404-0.591,1.149-1.253,1.305-2.033c0.153-0.767-0.292-1.652-0.464-2.436c0.303-0.303,0.538-0.537,0.787-0.787
		c1.229,0,2.694,0.413,3.656-0.107c1.132-0.612,2.496,0.188,3.378-0.893c2.11-0.212,4.248-0.023,5.991,1.128
		c1.445,0.954,2.883,1.775,4.482,2.438C164.552,56.904,165.769,58.133,166.27,60.167z"/>
	<path style="fill:#FFFFFF;" d="M192.926,56.667c-0.411,0.411-0.646,0.646-0.963,0.963c-1.137,0-2.359,0-3.5,0
		c-0.375,0.375-0.669,0.669-1.037,1.037c-1.572,0-3.358,0.396-4.833-0.11c-1.481-0.51-3.13-0.472-4.447-1.243
		c-1.365-0.799-3.195-0.312-4.375-1.863c0-1.053,0-2.273,0-3.755c0.317-0.129,0.952-0.631,1.273-0.477
		c1.571,0.752,3.202,0.303,4.729,0.463c0.887-0.641,1.721-1.244,2.698-1.951c1.379,0,2.935,0,4.519,0
		c0.909,0.91,1.848,1.848,2.87,2.871c0.803,0,1.693,0,2.04,0c1.931,0.676,2.852,1.687,3.34,3.353
		c-0.266,0.145-0.63,0.342-1.312,0.713C193.921,56.667,193.423,56.667,192.926,56.667z"/>
	<path style="fill:#FFFFFF;" d="M189.047,88.278c0.501-0.929,0.904-1.676,1.368-2.537c2.417,0,4.973,0,7.584,0
		c0.178,0.179,0.503,0.376,0.623,0.659c0.117,0.279,0.025,0.646,0.025,1.053c0.579,0.486,1.18,0.99,1.968,1.652
		c0,0.248,0,0.805,0,1.118c-0.961,0.838-1.805,1.574-2.696,2.352c-1.241-0.129-2.579-0.229-3.904-0.416
		c-1.756-0.248-3.352,0.243-4.729,1.21c-1.012,0.71-2.031,0.825-3.169,0.808c-1.741-0.028-3.482-0.008-5.332-0.008
		c0-2.143,0-4.257,0-6.359c0.189-0.189,0.366-0.366,0.724-0.724C183.909,87.465,186.464,87.87,189.047,88.278z"/>
	<path style="fill:#FFFFFF;" d="M119.619,66.424c0.141-2.041,0.454-3.962,1.615-5.705c2.105,0,4.162,0,6.136,0
		c0.377-0.377,0.671-0.67,1.009-1.009c1.438,0,2.923,0,4.475,0c1.084,0.637,1.978,1.588,2.762,2.732c0,1.144,0,2.367,0,3.608
		c-1.604,0.862-3.172,1.706-4.862,2.616c-1.336,0-2.85-0.143-4.325,0.035c-1.925,0.232-3.569-0.639-5.315-1.078
		C120.551,67.483,120.116,66.84,119.619,66.424z"/>
	<path style="fill:#FFFFFF;" d="M118.291,87.038c0.583-2.056,2.512-2.813,3.731-4.315c2.28-0.345,4.598,0.125,7.272,1.331
		c0.181,0.193,0.742,0.797,1.368,1.469c0,0.371,0,0.864,0,1.368c-2.526,2.598-3.094,2.778-8.729,2.777
		c-0.188-0.171-0.346-0.423-0.556-0.479c-0.307-0.081-0.65-0.021-0.957-0.021C119.698,88.445,118.997,87.743,118.291,87.038z"/>
	<path style="fill:#FFFFFF;" d="M191.888,41.248c0.718,0.368,1.404,0.719,2.232,1.143c0.633,2.252-1.869,3.375-2.093,5.185
		c-1.434,1.332-2.784,1.357-4.249,0.47c-0.382-0.231-0.921-0.427-1.331-0.347c-1.133,0.221-2.236,0.595-3.311,0.897
		c-0.512-0.438-1.047-0.896-1.784-1.526c1.236-0.611,2.243-1.109,3.269-1.616c0.423-1.294-0.548-1.636-1.572-2.082
		c0.837-0.604,1.609-1.161,2.241-1.616c2.204-0.093,4.258-0.175,6.312-0.279C191.723,41.471,191.836,41.292,191.888,41.248z"/>
	<path style="fill:#FFFFFF;" d="M164.428,27.666c-0.611-0.89-1.98-1.023-2.16-2.56c0.554-0.553,1.306-1.304,1.772-1.77
		c1.396-0.412,2.433,0.165,3.478-0.602c0.534-0.392,1.797-0.355,2.382,0.024c0.813,0.528,1.564,0.375,2.338,0.389
		c2.488,0.044,4.978,0.017,7.466,0.017c0.306,0,0.61,0,1.454,0c-1.568,0.991-2.667,1.685-3.952,2.496
		c-2.042-0.212-4.478,0.647-6.385-0.956c-1.1,1.101-2.141,2.143-2.956,2.96C166.42,27.666,165.425,27.666,164.428,27.666z"/>
	<path style="fill:#FFFFFF;" d="M148.098,42.782c0.606,1.212,1.26,2.519,2.031,4.064c-0.239,0.276-0.652,0.753-1.099,1.269
		c-3.375,0.237-6.808-0.386-10.257,0.726c0-0.935,0-1.653,0-2.496C141.11,43.562,144.133,42.117,148.098,42.782z"/>
	<path style="fill:#FFFFFF;" d="M173.761,78.332c0.256-0.256,0.432-0.432,0.636-0.636c0.795,0,1.617,0,2.475,0
		c1.931,1.587,4.246,2.786,5.993,5.047c-0.388,0.185-0.716,0.282-0.971,0.476c-0.327,0.25-0.595,0.576-0.929,0.91
		c-2.346,0-4.731,0-7.204,0C173.761,82.208,173.761,80.32,173.761,78.332z"/>
	<path style="fill:#FFFFFF;" d="M160.162,15.238c0.521,1.015,1.088,2.115,1.704,3.314c1.034,0.553,2.804,0.062,3.385,1.804
		c-2.797,1.415-5.411,0.748-8.004-0.366c-0.282-0.122-0.604-0.353-0.859-0.301c-0.941,0.19-1.715-0.297-2.544-0.534
		c-0.987-0.282-0.979-0.314-1.177-1.919c0.397-0.024,0.826,0.048,1.161-0.097c0.356-0.155,0.624-0.515,0.913-0.77
		C156.428,16.018,158.108,15.667,160.162,15.238z"/>
	<path style="fill:#FFFFFF;" d="M153.413,11.155c0.46,0.459,0.812,0.812,1.325,1.325c-0.133,0.463-0.297,1.032-0.463,1.613
		c-1.761,0-3.316,0-4.726,0c-0.803-0.366-1.492-0.71-2.204-1c-1.958-0.795-2.548-2.42-2.67-4.335
		c-0.02-0.316-0.003-0.635-0.003-1.022c1.328,0,2.552,0,3.889,0c0,0.666,0,1.381,0,2.091
		C150.106,10.678,151.598,11.313,153.413,11.155z"/>
	<path style="fill:#FFFFFF;" d="M120.371,21.243c0.834,0.36,1.589,0.687,2.512,1.085c-1.225,1.079-2.25,1.982-3.179,2.8
		c-2.026,0-3.844,0-5.686,0c-0.717,0.487-1.433,0.973-2.449,1.662c-1.114-0.354-2.512-0.797-4.097-1.3
		c0.264-0.688,0.48-1.257,0.681-1.779c2.695-0.167,5.246,0.289,7.682-0.566c0.356-0.125,0.618-0.522,1.136-0.982
		C117.989,22.188,119.298,22.258,120.371,21.243z"/>
	<path style="fill:#FFFFFF;" d="M184.189,85.432c-0.132-0.132-0.25-0.249-0.418-0.417c0.339-0.706,0.688-1.434,1.088-2.27
		c1.456,0,3.016,0,4.406,0c1.164-0.702,2.169-1.307,3.353-2.02c2.146,0,4.535,0,6.711,0c-0.321,0.354-0.728,0.802-1.384,1.528
		c-1.332-0.172-3.085-0.396-5.003-0.643c-0.918,1.128-1.874,2.302-2.842,3.491C188.104,85.351,186.108,84.881,184.189,85.432z"/>
	<path style="fill:#FFFFFF;" d="M151.656,43.449c0.021-0.475,0.034-0.795,0.048-1.094c0.191-0.076,0.333-0.179,0.476-0.181
		c0.991-0.014,1.991,0.072,2.973-0.03c0.923-0.097,1.825-0.385,2.916-0.629c1.053-1.349,2.664-1.542,4.545-1.27
		c-0.329,0.516-0.69,0.969-0.924,1.479c-0.253,0.554-0.388,1.162-0.574,1.75C159.291,44.528,153.583,44.472,151.656,43.449z"/>
	<path style="fill:#FFFFFF;" d="M102.069,1.277c2.486,0,4.854,0,7.459,0c0.604,0.73,1.657,1.384,2.371,2.696
		c-2.622,0.41-5.059,0.057-7.504,0.219C103.733,3.199,102.45,2.708,102.069,1.277z"/>
	<path style="fill:#FFFFFF;" d="M137.673,9.354c0-0.972-0.005-2.049,0.006-3.126c0.002-0.149,0.082-0.297,0.126-0.445
		c0.177-0.177,0.354-0.354,0.574-0.574c1.348,0,2.74,0,4.213,0c0,1.097,0,2.158,0,3.179c-0.176,0.351-0.349,0.697-0.571,1.142
		C140.659,10.416,139.188,10.511,137.673,9.354z"/>
	<path style="fill:#FFFFFF;" d="M156.618,36.798c0,0.619,0,1.174,0,1.823c-0.44,0.026-0.832,0.05-1.224,0.074
		c-0.292,0.292-0.584,0.583-0.923,0.923c-1.169,0-2.386,0-3.578,0c-0.254-0.245-0.491-0.474-0.72-0.694c0-0.511,0-1.006,0-1.512
		c0.405-0.399,0.816-0.805,1.236-1.217C155.343,35.981,155.343,35.981,156.618,36.798z"/>
	<path style="fill:#FFFFFF;" d="M153.717,30.186c0-0.561,0-1.209,0-1.938c2.313,0,4.582,0,7.056,0
		c-0.842,1.187-1.586,2.236-2.317,3.266c-0.951,0.224-1.934,0.455-2.897,0.682C154.98,31.565,154.43,30.963,153.717,30.186z"/>
	<path style="fill:#FFFFFF;" d="M115.149,18.39c-1.037,1.421-1.952,2.886-4.111,2.817c-1.053-0.033-2.12,0.379-3.298,0.613
		c0-0.987,0-1.711,0-2.433c0.384-0.401,0.784-0.819,1.169-1.222c2.021,0,4.013-0.001,6.003,0.007
		C114.972,18.172,115.031,18.278,115.149,18.39z"/>
	<path style="fill:#FFFFFF;" d="M111.803,8.423c0.656-0.735,1.077-1.206,1.464-1.64c2.038-0.251,4.017-0.496,6.143-0.758
		c0.361,0.528,0.72,1.051,1.078,1.574c-0.044,0.044-0.22,0.22-0.566,0.567C117.458,7.842,114.919,9.207,111.803,8.423z"/>
	<path style="fill:#FFFFFF;" d="M132.343,5.076c-0.501-0.318-1.101-0.698-1.663-1.054c0-0.424,0-0.755,0-1.135
		c1.688-0.855,3.223,0.488,5.035,0.246c0.209,0.654,0.391,1.225,0.62,1.943C134.88,5.076,133.652,5.076,132.343,5.076z"/>
	<path style="fill:#FFFFFF;" d="M118.925,13.164c0.229,0.233,0.462,0.47,0.687,0.698c0,0.896,0,1.787,0,2.848
		c-1.397-0.409-2.692-0.788-4.03-1.179c0.119-0.544,0.101-0.999,0.309-1.297C116.31,13.632,116.946,13.465,118.925,13.164z"/>
	<path style="fill:#FFFFFF;" d="M117.292,11.583c-0.267-0.339-0.503-0.639-0.927-1.175c1.678-0.331,3.09-0.609,4.684-0.923
		c0.282,0.709,0.524,1.317,0.836,2.098C120.218,11.583,118.845,11.583,117.292,11.583z"/>
	<path style="fill:#FFFFFF;" d="M129.63,0.246c0,0.306,0,0.53,0,0.836c-1.486,0-2.929,0-4.415,0c0-0.306,0-0.53,0-0.836
		C126.701,0.246,128.144,0.246,129.63,0.246z"/>
	<path style="fill:#FFFFFF;" d="M108.46,52.089c0.609,0.173,0.91,0.259,1.212,0.345c-0.233,0.078-0.462,0.183-0.701,0.216
		C108.899,52.66,108.8,52.472,108.46,52.089z"/>
	<path style="fill:#FFFFFF;" d="M74.746,80.858c-0.859-0.362-1.477-0.622-2.538-1.069c1.397,0,2.332,0,3.552,0
		C75.403,80.165,75.132,80.452,74.746,80.858z"/>
</g>
<g>
	<path style="fill:#FFFFFF;stroke:#FFFFFF;stroke-miterlimit:10;" d="M11.86,124.435l-3.475-21.211H11.9l1.817,11.684
		c0.2,1.278,0.446,3.362,0.739,6.252c0.692-1.505,1.578-3.229,2.656-5.173l7.09-12.763h3.815l-12.144,21.211H11.86z"/>
	<path style="fill:#FFFFFF;stroke:#FFFFFF;stroke-miterlimit:10;" d="M26.82,124.435l4.434-21.211h3.615l-4.434,21.211H26.82z
		 M32.093,99.249l0.859-4.094h3.595l-0.859,4.094H32.093z"/>
	<path style="fill:#FFFFFF;stroke:#FFFFFF;stroke-miterlimit:10;" d="M50.348,121.798c-1.251,1.079-2.457,1.868-3.615,2.367
		c-1.159,0.499-2.397,0.749-3.715,0.749c-1.957,0-3.535-0.576-4.733-1.728s-1.798-2.627-1.798-4.424c0-1.186,0.27-2.234,0.809-3.146
		c0.54-0.912,1.255-1.645,2.147-2.197c0.892-0.552,1.984-0.948,3.276-1.188c0.812-0.16,2.354-0.286,4.624-0.38
		c2.27-0.093,3.898-0.333,4.883-0.719c0.28-0.985,0.419-1.805,0.419-2.457c0-0.839-0.306-1.498-0.918-1.978
		c-0.839-0.665-2.064-0.998-3.675-0.998c-1.518,0-2.76,0.336-3.725,1.008c-0.966,0.673-1.668,1.628-2.107,2.866l-3.655-0.319
		c0.745-2.104,1.927-3.715,3.545-4.833c1.618-1.119,3.658-1.678,6.122-1.678c2.623,0,4.701,0.626,6.232,1.877
		c1.171,0.933,1.757,2.145,1.757,3.636c0,1.132-0.167,2.443-0.499,3.935l-1.179,5.272c-0.373,1.678-0.559,3.043-0.559,4.095
		c0,0.666,0.146,1.625,0.439,2.876h-3.655C50.568,123.743,50.428,122.864,50.348,121.798z M51.687,113.69
		c-0.506,0.199-1.048,0.353-1.628,0.459c-0.579,0.106-1.548,0.22-2.906,0.34c-2.104,0.187-3.589,0.423-4.454,0.709
		c-0.866,0.286-1.518,0.742-1.958,1.368s-0.659,1.318-0.659,2.077c0,1.012,0.35,1.844,1.049,2.496
		c0.699,0.653,1.694,0.979,2.986,0.979c1.198,0,2.35-0.316,3.456-0.949c1.105-0.632,1.977-1.515,2.616-2.646
		S51.327,115.78,51.687,113.69z"/>
	<path style="fill:#FFFFFF;stroke:#FFFFFF;stroke-miterlimit:10;" d="M59.276,115.028l3.655-0.319
		c0.173,1.465,0.576,2.666,1.208,3.604c0.632,0.939,1.614,1.698,2.946,2.277s2.829,0.869,4.494,0.869
		c1.478,0,2.783-0.22,3.915-0.659s1.974-1.042,2.526-1.808c0.553-0.766,0.829-1.602,0.829-2.507c0-0.919-0.267-1.721-0.799-2.407
		c-0.533-0.686-1.412-1.261-2.637-1.728c-0.786-0.306-2.523-0.782-5.213-1.428c-2.69-0.646-4.574-1.255-5.652-1.827
		c-1.398-0.732-2.44-1.642-3.125-2.727c-0.686-1.085-1.029-2.3-1.029-3.646c0-1.478,0.419-2.859,1.258-4.145
		c0.839-1.284,2.064-2.26,3.675-2.926c1.611-0.666,3.402-0.999,5.373-0.999c2.17,0,4.084,0.35,5.742,1.049s2.933,1.728,3.825,3.086
		s1.372,2.896,1.438,4.614l-3.715,0.279c-0.2-1.851-0.875-3.249-2.027-4.194s-2.853-1.418-5.103-1.418
		c-2.344,0-4.051,0.43-5.123,1.288s-1.608,1.895-1.608,3.105c0,1.053,0.379,1.918,1.139,2.597c0.746,0.68,2.693,1.375,5.842,2.087
		c3.149,0.713,5.31,1.336,6.481,1.868c1.704,0.785,2.962,1.781,3.775,2.985c0.812,1.206,1.218,2.594,1.218,4.165
		c0,1.558-0.446,3.025-1.338,4.403c-0.893,1.379-2.174,2.45-3.845,3.216s-3.552,1.148-5.642,1.148c-2.65,0-4.871-0.386-6.661-1.158
		c-1.791-0.772-3.196-1.934-4.214-3.485C59.866,118.74,59.33,116.985,59.276,115.028z"/>
	<path style="fill:#FFFFFF;stroke:#FFFFFF;stroke-miterlimit:10;" d="M87.418,132.564v-29.34h3.276v2.756
		c0.772-1.078,1.644-1.888,2.616-2.427c0.972-0.539,2.15-0.809,3.535-0.809c1.811,0,3.408,0.466,4.793,1.397
		c1.385,0.933,2.431,2.247,3.136,3.945c0.706,1.697,1.059,3.559,1.059,5.582c0,2.171-0.389,4.125-1.168,5.862
		s-1.911,3.069-3.396,3.994c-1.484,0.926-3.046,1.389-4.684,1.389c-1.198,0-2.273-0.253-3.226-0.759s-1.734-1.146-2.347-1.918
		v10.326H87.418z M90.674,113.949c0,2.73,0.552,4.747,1.658,6.053c1.105,1.305,2.443,1.957,4.015,1.957
		c1.598,0,2.966-0.676,4.104-2.027c1.138-1.352,1.707-3.445,1.707-6.281c0-2.703-0.556-4.728-1.668-6.072
		c-1.111-1.345-2.439-2.018-3.984-2.018c-1.531,0-2.886,0.717-4.064,2.147C91.263,109.139,90.674,111.22,90.674,113.949z"/>
	<path style="fill:#FFFFFF;stroke:#FFFFFF;stroke-miterlimit:10;" d="M110.088,124.435v-29.28h3.595v29.28H110.088z"/>
	<path style="fill:#FFFFFF;stroke:#FFFFFF;stroke-miterlimit:10;" d="M133.157,124.435v-3.116c-1.651,2.397-3.895,3.596-6.73,3.596
		c-1.252,0-2.421-0.24-3.506-0.719c-1.085-0.479-1.891-1.082-2.417-1.808c-0.525-0.726-0.896-1.615-1.108-2.667
		c-0.146-0.705-0.22-1.824-0.22-3.355v-13.142h3.596v11.764c0,1.878,0.072,3.143,0.22,3.795c0.226,0.945,0.705,1.688,1.438,2.227
		c0.732,0.54,1.638,0.81,2.717,0.81c1.078,0,2.09-0.276,3.036-0.829c0.945-0.553,1.614-1.305,2.007-2.257s0.589-2.334,0.589-4.145
		v-11.364h3.596v21.211H133.157z"/>
	<path style="fill:#FFFFFF;stroke:#FFFFFF;stroke-miterlimit:10;" d="M141.346,126.193l3.495,0.52
		c0.146,1.078,0.553,1.863,1.219,2.356c0.892,0.666,2.11,0.999,3.655,0.999c1.664,0,2.949-0.333,3.854-0.999
		s1.518-1.598,1.838-2.796c0.186-0.732,0.272-2.271,0.26-4.614c-1.571,1.851-3.529,2.776-5.872,2.776
		c-2.917,0-5.174-1.052-6.771-3.155c-1.598-2.104-2.396-4.627-2.396-7.57c0-2.023,0.366-3.892,1.099-5.603
		c0.731-1.711,1.794-3.032,3.186-3.965c1.392-0.932,3.025-1.397,4.903-1.397c2.503,0,4.567,1.012,6.191,3.035v-2.556h3.315v18.335
		c0,3.302-0.336,5.643-1.009,7.021c-0.672,1.378-1.737,2.467-3.195,3.266s-3.252,1.198-5.383,1.198c-2.53,0-4.573-0.569-6.132-1.708
		C142.045,130.198,141.293,128.483,141.346,126.193z M144.322,113.45c0,2.783,0.552,4.813,1.657,6.092s2.49,1.918,4.154,1.918
		c1.651,0,3.036-0.636,4.154-1.908c1.119-1.271,1.678-3.266,1.678-5.981c0-2.597-0.576-4.554-1.728-5.872s-2.54-1.978-4.164-1.978
		c-1.598,0-2.956,0.649-4.074,1.947C144.881,108.966,144.322,110.893,144.322,113.45z"/>
	<path style="fill:#FFFFFF;stroke:#FFFFFF;stroke-miterlimit:10;" d="M178.596,121.819c-1.332,1.132-2.613,1.931-3.845,2.396
		c-1.232,0.466-2.554,0.699-3.965,0.699c-2.331,0-4.122-0.569-5.373-1.708c-1.252-1.139-1.878-2.593-1.878-4.364
		c0-1.038,0.236-1.987,0.71-2.846c0.472-0.859,1.091-1.548,1.857-2.067c0.766-0.52,1.627-0.912,2.586-1.179
		c0.706-0.186,1.771-0.366,3.196-0.539c2.902-0.346,5.039-0.759,6.411-1.238c0.013-0.492,0.02-0.806,0.02-0.938
		c0-1.465-0.339-2.497-1.019-3.096c-0.919-0.812-2.283-1.219-4.095-1.219c-1.69,0-2.939,0.297-3.744,0.889
		c-0.807,0.593-1.402,1.642-1.788,3.146l-3.515-0.479c0.319-1.505,0.845-2.72,1.577-3.646c0.732-0.925,1.791-1.638,3.176-2.137
		c1.385-0.5,2.989-0.749,4.813-0.749c1.811,0,3.282,0.213,4.414,0.639c1.132,0.427,1.964,0.962,2.497,1.608
		c0.532,0.646,0.905,1.461,1.118,2.446c0.12,0.612,0.18,1.718,0.18,3.315v4.794c0,3.342,0.076,5.456,0.229,6.341
		c0.153,0.886,0.456,1.734,0.909,2.547h-3.755C178.941,123.69,178.702,122.817,178.596,121.819z M178.296,113.79
		c-1.306,0.532-3.263,0.985-5.872,1.358c-1.479,0.213-2.523,0.452-3.136,0.719c-0.613,0.267-1.086,0.656-1.418,1.168
		c-0.333,0.513-0.5,1.082-0.5,1.708c0,0.959,0.363,1.758,1.089,2.396c0.726,0.64,1.787,0.959,3.186,0.959
		c1.385,0,2.616-0.303,3.695-0.909c1.078-0.605,1.87-1.435,2.377-2.486c0.386-0.812,0.579-2.011,0.579-3.595V113.79z"/>
</g>
</svg>
